<svg xmlns="http://www.w3.org/2000/svg" fill="none" viewBox="-0.895 -0.895 25 25" id="Recycle-Bin-2--Streamline-Core.svg" height="25" width="25"><g id="Recycle-Bin-2--Streamline-Core.svg"><path id="Vector" stroke="#eaeaea" stroke-linecap="round" stroke-linejoin="round" d="M1.657857142857143 5.8025h19.894285714285715" stroke-width="1.79"></path><path id="Vector_2" stroke="#eaeaea" stroke-linecap="round" stroke-linejoin="round" d="M4.144642857142857 5.8025h14.920714285714286v14.920714285714286c0 0.43966371428571427 -0.17473814285714284 0.8614225714285714 -0.48558635714285714 1.1722707857142858s-0.7326070714285715 0.48558635714285714 -1.1722707857142858 0.48558635714285714h-11.605c-0.43969687142857145 0 -0.8613728357142857 -0.17473814285714284 -1.1722873642857143 -0.48558635714285714C4.319314685714286 21.584636857142858 4.144642857142857 21.162878 4.144642857142857 20.723214285714285v-14.920714285714286Z" stroke-width="1.79"></path><path id="Vector_3" stroke="#eaeaea" stroke-linecap="round" stroke-linejoin="round" d="M7.460357142857143 5.8025V4.973571428571429c0 -1.0992256 0.4366629928571429 -2.1534403785714287 1.2139327357142857 -2.9307101214285716C9.45155962142857 1.26559488 10.505774400000002 0.8289285714285715 11.605 0.8289285714285715c1.0992256 0 2.1534403785714287 0.43666630857142863 2.9307101214285716 1.2139327357142857C15.312979864285715 2.82013105 15.749642857142858 3.8743458285714287 15.749642857142858 4.973571428571429v0.8289285714285715" stroke-width="1.79"></path><path id="Vector_4" stroke="#eaeaea" stroke-linecap="round" stroke-linejoin="round" d="M9.118214285714286 10.7784919V17.41247357142857" stroke-width="1.79"></path><path id="Vector_5" stroke="#eaeaea" stroke-linecap="round" stroke-linejoin="round" d="M14.091785714285715 10.7784919V17.41247357142857" stroke-width="1.79"></path></g></svg>